<?xml version="1.0" standalone="no"?>
<!DOCTYPE svg PUBLIC "-//W3C//DTD SVG 20010904//EN"
 "http://www.w3.org/TR/2001/REC-SVG-20010904/DTD/svg10.dtd">
<svg version="1.0" xmlns="http://www.w3.org/2000/svg"
 width="500.000000pt" height="500.000000pt" viewBox="0 0 500.000000 500.000000"
 preserveAspectRatio="xMidYMid meet">
<metadata>
Created by potrace 1.11, written by Peter Selinger 2001-2013
</metadata>
<g transform="translate(0.000000,500.000000) scale(0.100000,-0.100000)"
fill="#000000" stroke="none">
<path d="M555 4981 c-337 -81 -564 -378 -551 -721 5 -113 18 -171 61 -267 86
-188 237 -323 434 -388 72 -24 109 -28 226 -28 314 -1 591 211 676 517 29 102
31 268 6 366 -68 263 -275 461 -552 527 -56 13 -234 10 -300 -6z"/>
<path d="M3570 4285 l0 -715 715 0 715 0 0 715 0 715 -715 0 -715 0 0 -715z"/>
<path d="M4497 1344 c-3 -3 -49 -10 -157 -24 -47 -6 -96 -13 -110 -15 -14 -2
-45 -6 -70 -10 -25 -3 -56 -8 -70 -10 -14 -2 -49 -7 -79 -10 -30 -4 -62 -8
-72 -10 -9 -2 -39 -6 -66 -10 -26 -4 -59 -8 -72 -11 -42 -6 -105 -15 -136 -18
-38 -5 -122 -17 -155 -22 -14 -2 -45 -6 -70 -10 -25 -3 -56 -7 -70 -10 -14 -2
-61 -8 -105 -14 -44 -6 -91 -13 -105 -15 -14 -2 -77 -11 -140 -20 -63 -9 -126
-18 -140 -20 -22 -4 -497 -70 -575 -80 -16 -2 -46 -6 -65 -9 -64 -8 -265 -37
-289 -41 -13 -2 -45 -7 -70 -11 -25 -3 -57 -8 -71 -10 -14 -2 -47 -6 -75 -9
-27 -3 -77 -10 -110 -15 -33 -5 -78 -12 -100 -15 -22 -2 -49 -7 -60 -9 -11 -2
-49 -7 -85 -11 -36 -4 -67 -9 -70 -10 -3 -2 -37 -7 -75 -10 -39 -4 -72 -8 -75
-10 -3 -2 -30 -6 -60 -10 -30 -3 -82 -10 -115 -15 -33 -5 -78 -12 -100 -15
-22 -2 -71 -9 -110 -15 -38 -5 -90 -13 -115 -16 -25 -3 -67 -9 -95 -12 l-50
-7 -1 -40 c0 -22 3 -56 7 -75 4 -19 10 -59 13 -89 4 -30 9 -64 11 -75 2 -12 7
-41 10 -66 18 -145 46 -337 51 -353 3 -9 8 -15 12 -13 4 2 31 7 61 11 30 4 63
9 75 11 12 2 46 7 76 9 30 3 62 8 70 10 8 3 35 7 60 10 25 3 54 7 65 9 11 2
45 7 75 11 30 3 66 8 80 10 14 2 45 7 70 10 47 6 65 9 140 20 86 13 95 14 175
25 44 6 91 12 105 14 14 3 48 7 75 11 28 3 79 10 115 16 36 6 79 12 95 14 27
3 78 10 145 20 14 2 61 9 106 15 44 6 90 12 102 15 11 2 47 6 78 10 32 3 60 8
63 9 3 2 38 7 76 10 39 4 77 9 85 11 8 2 34 6 58 9 110 15 131 18 187 26 33 5
80 12 105 15 25 3 88 12 140 20 52 8 118 17 145 20 28 3 60 8 72 10 12 3 41 7
65 10 24 3 61 8 83 11 22 3 51 7 65 9 14 2 45 7 70 10 25 3 56 8 70 10 14 2
61 9 106 15 44 6 91 12 103 15 13 2 49 7 80 11 31 3 65 8 76 10 10 2 37 6 60
9 22 3 58 8 80 11 22 3 51 7 65 9 14 2 43 6 65 9 22 4 58 9 80 11 39 5 102 14
137 20 9 2 45 7 80 10 34 4 65 8 67 10 3 4 -15 147 -33 260 -3 17 -7 50 -10
75 -3 25 -7 54 -10 65 -3 16 -16 109 -21 160 -1 6 -6 37 -10 70 -5 33 -8 64
-7 68 2 6 -74 7 -81 1z"/>
</g>
</svg>
